HIERARCHY
ROOT mixamorig:Hips
{
	OFFSET 0.000000 104.274902 0.000000
	CHANNELS 6 Xposition Yposition Zposition Xrotation Yrotation Zrotation
	JOINT mixamorig:Spine
	{
		OFFSET 0.000000 10.181549 0.131524
		CHANNELS 6 Xposition Yposition Zposition Xrotation Yrotation Zrotation
		JOINT mixamorig:Spine1
		{
			OFFSET 0.000000 9.893990 -1.470706
			CHANNELS 3 Xrotation Yrotation Zrotation
			JOINT mixamorig:Spine2
			{
				OFFSET 0.000000 9.220787 -1.370636
				CHANNELS 3 Xrotation Yrotation Zrotation
				JOINT mixamorig:Neck
				{
					OFFSET 0.000000 16.740372 -2.049023
					CHANNELS 6 Xposition Yposition Zposition Xrotation Yrotation Zrotation
					JOINT mixamorig:Head
					{
						OFFSET 0.000000 9.617859 1.684975
						CHANNELS 6 Xposition Yposition Zposition Xrotation Yrotation Zrotation
						JOINT mixamorig:HeadTop_End
						{
							OFFSET 0.000000 22.037369 7.501070
							CHANNELS 6 Xposition Yposition Zposition Xrotation Yrotation Zrotation
							End Site
							{
								OFFSET 0.000000 23.106567 -2.828246
							}
						}
					}
				}
				JOINT mixamorig:RightShoulder
				{
					OFFSET -4.570000 11.014862 -2.160841
					CHANNELS 6 Xposition Yposition Zposition Xrotation Yrotation Zrotation
					JOINT mixamorig:RightArm
					{
						OFFSET -10.592869 -0.524796 -2.232105
						CHANNELS 3 Xrotation Yrotation Zrotation
						JOINT mixamorig:RightForeArm
						{
							OFFSET -27.841499 0.000000 0.000000
							CHANNELS 3 Xrotation Yrotation Zrotation
							JOINT mixamorig:RightHand
							{
								OFFSET -28.328800 0.000000 0.000000
								CHANNELS 3 Xrotation Yrotation Zrotation
								JOINT mixamorig:RightHandThumb1
								{
									OFFSET -2.464798 -1.573990 2.681910
									CHANNELS 6 Xposition Yposition Zposition Xrotation Yrotation Zrotation
									JOINT mixamorig:RightHandThumb2
									{
										OFFSET -3.244789 -1.873367 1.873378
										CHANNELS 3 Xrotation Yrotation Zrotation
										JOINT mixamorig:RightHandThumb3
										{
											OFFSET -2.646255 -1.527817 1.527816
											CHANNELS 3 Xrotation Yrotation Zrotation
											JOINT mixamorig:RightHandThumb4
											{
												OFFSET -1.994583 -1.151581 1.151575
												CHANNELS 3 Xrotation Yrotation Zrotation
												End Site
												{
													OFFSET -1.860176 -1.142715 1.365483
												}
											}
										}
									}
								}
								JOINT mixamorig:RightHandIndex1
								{
									OFFSET -9.108299 -0.517883 2.259803
									CHANNELS 6 Xposition Yposition Zposition Xrotation Yrotation Zrotation
									JOINT mixamorig:RightHandIndex2
									{
										OFFSET -3.700005 0.000000 0.000000
										CHANNELS 3 Xrotation Yrotation Zrotation
										JOINT mixamorig:RightHandIndex3
										{
											OFFSET -2.849998 0.000000 0.000000
											CHANNELS 3 Xrotation Yrotation Zrotation
											JOINT mixamorig:RightHandIndex4
											{
												OFFSET -2.772202 0.000000 0.000000
												CHANNELS 3 Xrotation Yrotation Zrotation
												End Site
												{
													OFFSET -2.772202 0.000000 -0.000484
												}
											}
										}
									}
								}
								JOINT mixamorig:RightHandMiddle1
								{
									OFFSET -9.532501 0.000000 0.000000
									CHANNELS 6 Xposition Yposition Zposition Xrotation Yrotation Zrotation
									JOINT mixamorig:RightHandMiddle2
									{
										OFFSET -3.699997 0.000000 0.000000
										CHANNELS 3 Xrotation Yrotation Zrotation
										JOINT mixamorig:RightHandMiddle3
										{
											OFFSET -2.950005 0.000000 0.000000
											CHANNELS 3 Xrotation Yrotation Zrotation
											JOINT mixamorig:RightHandMiddle4
											{
												OFFSET -2.946602 0.000000 0.000000
												CHANNELS 3 Xrotation Yrotation Zrotation
												End Site
												{
													OFFSET -2.946594 0.000000 -0.000982
												}
											}
										}
									}
								}
								JOINT mixamorig:RightHandRing1
								{
									OFFSET -9.103600 -0.043106 -1.865100
									CHANNELS 6 Xposition Yposition Zposition Xrotation Yrotation Zrotation
									JOINT mixamorig:RightHandRing2
									{
										OFFSET -3.379303 0.000000 0.000000
										CHANNELS 3 Xrotation Yrotation Zrotation
										JOINT mixamorig:RightHandRing3
										{
											OFFSET -2.889702 0.000000 0.000000
											CHANNELS 3 Xrotation Yrotation Zrotation
											JOINT mixamorig:RightHandRing4
											{
												OFFSET -2.638794 0.000000 0.000000
												CHANNELS 3 Xrotation Yrotation Zrotation
												End Site
												{
													OFFSET -2.638794 0.000000 0.004219
												}
											}
										}
									}
								}
								JOINT mixamorig:RightHandPinky1
								{
									OFFSET -8.076698 -0.486725 -3.806297
									CHANNELS 6 Xposition Yposition Zposition Xrotation Yrotation Zrotation
									JOINT mixamorig:RightHandPinky2
									{
										OFFSET -3.600006 0.000000 0.000000
										CHANNELS 3 Xrotation Yrotation Zrotation
										JOINT mixamorig:RightHandPinky3
										{
											OFFSET -2.099998 0.000000 0.000000
											CHANNELS 3 Xrotation Yrotation Zrotation
											JOINT mixamorig:RightHandPinky4
											{
												OFFSET -2.115799 0.000000 0.000000
												CHANNELS 3 Xrotation Yrotation Zrotation
												End Site
												{
													OFFSET -2.115799 0.000000 0.000174
												}
											}
										}
									}
								}
							}
						}
					}
				}
				JOINT mixamorig:LeftShoulder
				{
					OFFSET 4.570400 11.014664 -2.160817
					CHANNELS 6 Xposition Yposition Zposition Xrotation Yrotation Zrotation
					JOINT mixamorig:LeftArm
					{
						OFFSET 10.592365 -0.524597 -2.232113
						CHANNELS 3 Xrotation Yrotation Zrotation
						JOINT mixamorig:LeftForeArm
						{
							OFFSET 27.841499 0.000000 0.000000
							CHANNELS 3 Xrotation Yrotation Zrotation
							JOINT mixamorig:LeftHand
							{
								OFFSET 28.328804 0.000000 0.000000
								CHANNELS 3 Xrotation Yrotation Zrotation
								JOINT mixamorig:LeftHandThumb1
								{
									OFFSET 2.466095 -1.576202 2.681697
									CHANNELS 6 Xposition Yposition Zposition Xrotation Yrotation Zrotation
									JOINT mixamorig:LeftHandThumb2
									{
										OFFSET 3.243317 -1.872528 1.872528
										CHANNELS 3 Xrotation Yrotation Zrotation
										JOINT mixamorig:LeftHandThumb3
										{
											OFFSET 2.647881 -1.528763 1.528755
											CHANNELS 3 Xrotation Yrotation Zrotation
											JOINT mixamorig:LeftHandThumb4
											{
												OFFSET 1.998924 -1.154068 1.154079
												CHANNELS 3 Xrotation Yrotation Zrotation
												End Site
												{
													OFFSET 1.884041 -1.149155 1.337651
												}
											}
										}
									}
								}
								JOINT mixamorig:LeftHandIndex1
								{
									OFFSET 9.109299 -0.518005 2.259899
									CHANNELS 6 Xposition Yposition Zposition Xrotation Yrotation Zrotation
									JOINT mixamorig:LeftHandIndex2
									{
										OFFSET 3.699997 0.000000 0.000000
										CHANNELS 3 Xrotation Yrotation Zrotation
										JOINT mixamorig:LeftHandIndex3
										{
											OFFSET 2.849998 0.000000 0.000000
											CHANNELS 3 Xrotation Yrotation Zrotation
											JOINT mixamorig:LeftHandIndex4
											{
												OFFSET 2.774902 0.000000 0.000000
												CHANNELS 3 Xrotation Yrotation Zrotation
												End Site
												{
													OFFSET 2.774902 0.000000 -0.000072
												}
											}
										}
									}
								}
								JOINT mixamorig:LeftHandMiddle1
								{
									OFFSET 9.533394 0.000000 0.000000
									CHANNELS 6 Xposition Yposition Zposition Xrotation Yrotation Zrotation
									JOINT mixamorig:LeftHandMiddle2
									{
										OFFSET 3.700005 0.000000 0.000000
										CHANNELS 3 Xrotation Yrotation Zrotation
										JOINT mixamorig:LeftHandMiddle3
										{
											OFFSET 2.949997 0.000000 0.000000
											CHANNELS 3 Xrotation Yrotation Zrotation
											JOINT mixamorig:LeftHandMiddle4
											{
												OFFSET 2.952904 0.000000 0.000000
												CHANNELS 3 Xrotation Yrotation Zrotation
												End Site
												{
													OFFSET 2.952896 0.000000 0.000165
												}
											}
										}
									}
								}
								JOINT mixamorig:LeftHandRing1
								{
									OFFSET 9.104500 -0.042999 -1.865100
									CHANNELS 6 Xposition Yposition Zposition Xrotation Yrotation Zrotation
									JOINT mixamorig:LeftHandRing2
									{
										OFFSET 3.149994 0.000000 0.000000
										CHANNELS 3 Xrotation Yrotation Zrotation
										JOINT mixamorig:LeftHandRing3
										{
											OFFSET 2.950005 0.000000 0.000000
											CHANNELS 3 Xrotation Yrotation Zrotation
											JOINT mixamorig:LeftHandRing4
											{
												OFFSET 2.644295 0.000000 0.000000
												CHANNELS 3 Xrotation Yrotation Zrotation
												End Site
												{
													OFFSET 2.644302 0.000000 0.000083
												}
											}
										}
									}
								}
								JOINT mixamorig:LeftHandPinky1
								{
									OFFSET 8.077797 -0.486893 -3.806301
									CHANNELS 6 Xposition Yposition Zposition Xrotation Yrotation Zrotation
									JOINT mixamorig:LeftHandPinky2
									{
										OFFSET 3.599998 0.000000 0.000000
										CHANNELS 3 Xrotation Yrotation Zrotation
										JOINT mixamorig:LeftHandPinky3
										{
											OFFSET 2.099998 0.000000 0.000000
											CHANNELS 3 Xrotation Yrotation Zrotation
											JOINT mixamorig:LeftHandPinky4
											{
												OFFSET 2.125504 0.000000 0.000000
												CHANNELS 3 Xrotation Yrotation Zrotation
												End Site
												{
													OFFSET 2.125504 0.000000 -0.001254
												}
											}
										}
									}
								}
							}
						}
					}
				}
			}
		}
	}
	JOINT mixamorig:RightUpLeg
	{
		OFFSET -8.207800 -6.751701 -1.599544
		CHANNELS 6 Xposition Yposition Zposition Xrotation Yrotation Zrotation
		JOINT mixamorig:RightLeg
		{
			OFFSET 0.000000 -44.370155 0.345934
			CHANNELS 3 Xrotation Yrotation Zrotation
			JOINT mixamorig:RightFoot
			{
				OFFSET 0.000000 -44.423664 -3.043536
				CHANNELS 3 Xrotation Yrotation Zrotation
				JOINT mixamorig:RightToeBase
				{
					OFFSET 0.000000 -8.728685 10.710592
					CHANNELS 3 Xrotation Yrotation Zrotation
					JOINT mixamorig:RightToe_End
					{
						OFFSET 0.000000 -0.000664 9.278099
						CHANNELS 3 Xrotation Yrotation Zrotation
						End Site
						{
							OFFSET 0.000000 -0.000664 9.278101
						}
					}
				}
			}
		}
	}
	JOINT mixamorig:LeftUpLeg
	{
		OFFSET 8.207800 -6.751701 -1.599544
		CHANNELS 6 Xposition Yposition Zposition Xrotation Yrotation Zrotation
		JOINT mixamorig:LeftLeg
		{
			OFFSET 0.000000 -44.370049 0.346940
			CHANNELS 3 Xrotation Yrotation Zrotation
			JOINT mixamorig:LeftFoot
			{
				OFFSET 0.000000 -44.423603 -3.044389
				CHANNELS 3 Xrotation Yrotation Zrotation
				JOINT mixamorig:LeftToeBase
				{
					OFFSET 0.000000 -8.728686 10.710592
					CHANNELS 3 Xrotation Yrotation Zrotation
					JOINT mixamorig:LeftToe_End
					{
						OFFSET 0.000000 -0.000680 9.278100
						CHANNELS 3 Xrotation Yrotation Zrotation
						End Site
						{
							OFFSET 0.000000 -0.000680 9.278100
						}
					}
				}
			}
		}
	}
}
MOTION
Frames: 4
Frame Time: 0.033333
0.478546 101.630859 1.555253 -0.893321 1.577730 -5.358980 0.000000 10.181554 0.131524 1.298039 -1.197539 3.016665 0.728747 0.264196 5.944685 0.710790 0.781494 5.851996 -0.000000 16.740379 -2.049022 1.045308 -0.304693 -2.160954 -0.000002 9.617834 1.684976 1.584883 0.544206 -8.137579 0.000000 22.037369 7.501074 0.000000 -0.000000 -0.000000 -4.570000 11.014861 -2.160843 4.508135 3.324380 5.471580 -1.219698 0.655846 67.345419 -0.000012 17.736777 0.000033 -11.193104 -9.123273 10.139272 -2.464814 -1.573987 2.681910 18.502192 0.461587 -10.920242 1.284631 -32.755316 3.089508 1.982254 -8.434752 1.135741 -0.000002 0.000001 -0.000001 -9.108314 -0.517855 2.259802 0.342043 -4.680457 7.843781 0.387030 -2.823579 20.566227 -0.193125 -0.216341 13.843936 -0.000000 -0.000000 0.000003 -9.532503 0.000013 -0.000001 0.910718 -8.763969 15.819393 0.919889 -3.992411 33.415690 0.216461 -1.688781 15.897682 0.000000 -0.000000 -0.000002 -9.103613 -0.043096 -1.865102 2.552426 -11.667039 26.900989 1.710782 -3.886890 40.217223 -0.157984 0.035530 17.812865 -0.000002 -0.000000 -0.000000 -8.076715 -0.486720 -3.806301 5.573386 -16.028162 36.940508 1.378581 -4.077510 45.644088 -0.727743 -0.247401 22.121429 -0.000001 -0.000000 0.000001 4.570400 11.014678 -2.160818 3.582355 -13.764049 -5.044468 4.032808 3.514294 -83.678335 0.000004 -14.506794 0.000005 -27.592590 3.698792 -9.416220 2.466077 -1.576202 2.681688 18.491375 -0.461344 10.916044 1.284030 32.757604 -3.088996 2.117133 9.311161 -0.358628 -0.000000 -0.000002 0.000001 9.109289 -0.518007 2.259900 0.339559 4.671366 -7.844274 0.387015 2.823620 -20.566227 0.034609 0.816842 -10.169803 0.000001 -0.000002 -0.000000 9.533383 0.000005 0.000001 0.912565 8.769294 -15.831726 0.918065 3.989655 -33.382140 0.170890 1.490216 -12.277932 0.000001 -0.000002 0.000001 9.104495 -0.042995 -1.865100 2.555791 11.673075 -26.909171 1.710617 3.886857 -40.215481 0.544840 1.835095 -19.344125 0.000001 -0.000000 0.000000 8.077791 -0.486910 -3.806299 5.576043 16.029238 -36.940614 1.378643 4.077723 -45.645611 0.486565 2.853416 -20.524718 0.000001 -0.000000 0.000001 -8.207796 -6.751707 -1.599543 -1.605295 -4.966828 10.551753 12.449045 -5.082068 3.268387 -9.847015 1.008394 -7.754723 -0.514650 0.000006 0.000003 -0.000000 -0.000000 -0.000000 8.207800 -6.751699 -1.599542 -19.555979 10.813088 15.936245 22.045072 9.498151 2.339207 -1.490974 3.341961 -8.781922 -0.441962 -0.000002 -0.000004 0.000000 0.000002 0.000000 
0.491551 101.615486 1.541585 -1.040310 1.593727 -5.386302 0.000001 10.181548 0.131525 1.316914 -1.139178 3.039875 0.760943 0.379982 5.964480 0.743261 0.897157 5.872070 0.000001 16.740355 -2.049022 1.062486 -0.371943 -2.155059 -0.000004 9.617805 1.684980 1.809417 0.516727 -8.216048 0.000000 22.037338 7.501075 -0.000000 0.000000 -0.000000 -4.570000 11.014859 -2.160843 4.450917 3.680446 6.087121 -0.910756 -0.615832 66.730381 -0.000003 18.579358 0.000037 -8.364054 -11.731763 7.549646 -2.464811 -1.573989 2.681903 18.499168 0.461566 -10.888904 1.304549 -32.751758 3.139794 1.982268 -8.434756 1.135739 -0.000004 -0.000001 -0.000001 -9.108289 -0.517882 2.259804 0.342035 -4.680461 7.843777 0.387035 -2.823573 20.566205 -0.193117 -0.216347 13.843942 -0.000000 0.000000 0.000002 -9.532511 0.000009 0.000001 0.910733 -8.763969 15.819415 0.919881 -3.992409 33.415690 0.216450 -1.688786 15.897680 -0.000001 -0.000001 -0.000001 -9.103613 -0.043092 -1.865099 2.552430 -11.667035 26.900980 1.710778 -3.886892 40.217223 -0.157978 0.035534 17.812858 -0.000001 0.000000 0.000000 -8.076718 -0.486716 -3.806301 5.573387 -16.028162 36.940521 1.378585 -4.077504 45.644071 -0.727746 -0.247403 22.121434 -0.000001 -0.000001 -0.000000 4.570401 11.014669 -2.160817 3.525059 -13.876501 -5.184374 4.324989 4.143507 -83.372574 -0.000014 -15.205876 -0.000013 -26.844728 4.027838 -9.351954 2.466088 -1.576216 2.681692 18.491371 -0.461338 10.916048 1.284031 32.757604 -3.088993 2.117132 9.311159 -0.358631 0.000002 0.000004 0.000001 9.109306 -0.518016 2.259897 0.644007 4.290934 -6.741769 0.387008 2.823620 -20.566224 0.034617 0.816849 -10.169821 0.000001 0.000000 0.000002 9.533393 0.000002 -0.000001 0.800096 8.482533 -14.666779 0.918073 3.989653 -33.382140 0.170879 1.490208 -12.277933 -0.000000 -0.000001 0.000001 9.104510 -0.042991 -1.865101 2.121257 11.157964 -24.118066 1.709664 3.885939 -40.202292 0.544841 1.835101 -19.344144 0.000001 -0.000002 0.000001 8.077796 -0.486898 -3.806302 4.713852 15.624609 -32.590231 1.372370 4.070453 -45.549903 0.486053 2.852290 -20.512328 0.000001 -0.000000 0.000000 -8.207797 -6.751711 -1.599544 -1.521811 -4.975574 10.600119 12.581474 -4.979041 3.221980 -9.919834 0.902018 -7.742661 -0.514646 0.000000 -0.000000 0.000000 0.000000 0.000000 8.207800 -6.751716 -1.599545 -19.510729 10.735267 15.922803 22.222260 9.578048 2.449517 -1.460464 3.341586 -8.832291 -0.527478 -0.000001 0.000006 0.000000 -0.000001 0.000000 
0.533115 101.598976 1.543024 -1.168881 1.697566 -5.394799 0.000000 10.181558 0.131523 1.326255 -1.087664 3.042888 0.775264 0.479425 5.959476 0.758039 0.996560 5.867301 -0.000002 16.740334 -2.049021 1.119014 -0.418125 -2.140872 0.000001 9.617859 1.684976 2.216577 0.606796 -8.265386 -0.000000 22.037384 7.501068 0.000000 -0.000000 0.000000 -4.570000 11.014856 -2.160838 4.375458 4.024456 6.469314 -0.586921 -1.967884 66.349093 -0.000004 19.518521 0.000016 -6.242157 -13.991302 5.229992 -2.464792 -1.573984 2.681915 18.489896 0.465552 -10.809979 1.364659 -32.734389 3.288913 1.982246 -8.434762 1.135744 -0.000002 0.000001 0.000002 -9.108296 -0.517858 2.259803 0.342045 -4.680463 7.843762 0.387024 -2.823572 20.566224 -0.193119 -0.216340 13.843940 0.000001 0.000001 -0.000002 -9.532507 0.000011 0.000000 0.910717 -8.763969 15.819391 0.919885 -3.992412 33.415690 0.216461 -1.688794 15.897692 0.000001 0.000000 -0.000000 -9.103594 -0.043099 -1.865100 2.552431 -11.667039 26.900965 1.710774 -3.886889 40.217216 -0.157980 0.035532 17.812876 0.000002 -0.000000 -0.000000 -8.076692 -0.486715 -3.806300 5.573372 -16.028166 36.940487 1.378586 -4.077512 45.644081 -0.727742 -0.247418 22.121444 0.000000 0.000001 -0.000001 4.570401 11.014633 -2.160816 3.453926 -14.086668 -5.341818 5.385630 5.229489 -83.114421 -0.000012 -17.031003 -0.000004 -25.748449 4.522649 -9.054996 2.466094 -1.576205 2.681691 18.491381 -0.461340 10.916042 1.284027 32.757604 -3.088993 2.117133 9.311157 -0.358630 0.000001 -0.000001 -0.000000 9.109300 -0.518021 2.259899 1.018374 3.858554 -5.439583 0.387008 2.823617 -20.566226 0.034615 0.816850 -10.169802 0.000001 0.000000 0.000000 9.533391 -0.000000 -0.000000 0.680095 8.140275 -13.297894 0.918058 3.989655 -33.382140 0.170887 1.490218 -12.277951 -0.000000 -0.000000 -0.000001 9.104506 -0.042989 -1.865100 1.662421 10.507210 -20.849195 1.708545 3.884856 -40.186702 0.544842 1.835112 -19.344146 -0.000001 -0.000000 0.000001 8.077804 -0.486891 -3.806302 3.755543 15.014530 -27.499866 1.365004 4.061871 -45.437311 0.485451 2.850945 -20.497732 0.000001 0.000000 -0.000001 -8.207796 -6.751715 -1.599543 -1.475870 -4.986802 10.616503 12.760598 -4.873030 3.172643 -10.031945 0.709608 -7.712775 -0.514655 -0.000003 -0.000002 0.000000 -0.000000 -0.000000 8.207803 -6.751706 -1.599544 -19.494591 10.693040 15.878878 22.419608 9.529036 2.523088 -1.489347 3.341954 -8.832015 -0.594323 -0.000003 0.000001 0.000000 0.000001 0.000000 
0.595193 101.584633 1.544298 -1.306714 1.906687 -5.366323 -0.000001 10.181575 0.131524 1.338536 -1.043674 3.028833 0.796255 0.565143 5.920265 0.779748 1.082291 5.828305 0.000001 16.740364 -2.049024 1.197846 -0.444293 -2.146683 -0.000001 9.617848 1.684979 2.870203 0.777742 -8.299192 -0.000000 22.037384 7.501070 0.000000 0.000000 0.000000 -4.569999 11.014864 -2.160844 4.294350 4.327476 6.689822 -0.708277 -3.482337 66.230377 0.000001 20.109793 0.000041 -5.485017 -15.747793 3.402894 -2.464800 -1.573985 2.681911 18.479936 0.477402 -10.681445 1.462247 -32.705664 3.531255 1.964254 -8.439251 1.133988 -0.000005 -0.000000 -0.000001 -9.108298 -0.517878 2.259802 0.342040 -4.680462 7.843753 0.387022 -2.823571 20.566217 -0.193121 -0.216346 13.843929 -0.000001 -0.000000 0.000003 -9.532508 0.000015 0.000000 0.910715 -8.763967 15.819384 0.919884 -3.992410 33.415676 0.216465 -1.688793 15.897696 0.000001 0.000001 -0.000002 -9.103609 -0.043090 -1.865101 2.552417 -11.667040 26.900963 1.710787 -3.886898 40.217243 -0.157973 0.035538 17.812858 -0.000001 -0.000000 0.000000 -8.076699 -0.486715 -3.806301 5.573372 -16.028164 36.940457 1.378592 -4.077517 45.644088 -0.727737 -0.247410 22.121436 0.000001 -0.000000 0.000001 4.570396 11.014640 -2.160819 3.378145 -14.334539 -5.459153 6.630999 6.455331 -82.903702 0.000008 -18.514348 0.000017 -24.533345 4.203920 -8.998933 2.466077 -1.576221 2.681689 18.491352 -0.461340 10.916062 1.284028 32.757604 -3.088993 2.117132 9.311158 -0.358625 0.000002 0.000003 -0.000002 9.109281 -0.518020 2.259899 1.433688 3.419115 -4.053658 0.387012 2.823609 -20.566196 0.034610 0.816853 -10.169818 0.000001 0.000000 0.000001 9.533375 0.000004 -0.000002 0.567587 7.772094 -11.849216 0.918057 3.989648 -33.382140 0.170888 1.490217 -12.277928 -0.000000 -0.000000 -0.000001 9.104489 -0.042984 -1.865101 1.242451 9.769427 -17.403004 1.707385 3.883713 -40.170197 0.544832 1.835096 -19.344146 -0.000000 -0.000001 -0.000000 8.077793 -0.486906 -3.806301 2.825159 14.217796 -22.145826 1.357205 4.052773 -45.317977 0.484815 2.849525 -20.482242 0.000002 -0.000000 0.000000 -8.207800 -6.751692 -1.599544 -1.444641 -4.992661 10.609472 12.972324 -4.762423 3.098686 -10.171334 0.404399 -7.670554 -0.514641 0.000005 -0.000002 0.000000 -0.000000 -0.000000 8.207799 -6.751696 -1.599543 -19.476148 10.658576 15.790375 22.621233 9.353719 2.569044 -1.526263 3.345383 -8.778841 -0.679438 -0.000001 -0.000001 0.000000 0.000000 0.000000 
